<mxfile host="app.diagrams.net" modified="2023-04-10T10:16:44.362Z" agent="Mozilla/5.0 (Macintosh; Intel Mac OS X 10_15_7) AppleWebKit/537.36 (KHTML, like Gecko) Chrome/111.0.0.0 Safari/537.36" etag="hb1XWkyyiuCBMHaq-6pE" version="21.1.4" type="device">
  <diagram name="Page-1" id="kSdo16YawyXebgROU2e9">
    <mxGraphModel dx="1013" dy="521" grid="1" gridSize="10" guides="1" tooltips="1" connect="1" arrows="1" fold="1" page="1" pageScale="1" pageWidth="850" pageHeight="1100" math="0" shadow="0">
      <root>
        <mxCell id="0" />
        <mxCell id="1" parent="0" />
        <mxCell id="WUUN0eypintUxzaO_pkk-2" value="User" style="whiteSpace=wrap;html=1;align=center;" vertex="1" parent="1">
          <mxGeometry x="40" y="120" width="80" height="40" as="geometry" />
        </mxCell>
        <mxCell id="WUUN0eypintUxzaO_pkk-3" value="name" style="ellipse;whiteSpace=wrap;html=1;align=center;" vertex="1" parent="1">
          <mxGeometry x="10" y="198.75" width="60" height="40" as="geometry" />
        </mxCell>
        <mxCell id="WUUN0eypintUxzaO_pkk-6" value="Student" style="whiteSpace=wrap;html=1;align=center;" vertex="1" parent="1">
          <mxGeometry x="280" y="158.75" width="80" height="40" as="geometry" />
        </mxCell>
        <mxCell id="WUUN0eypintUxzaO_pkk-7" value="Teacher" style="whiteSpace=wrap;html=1;align=center;" vertex="1" parent="1">
          <mxGeometry x="280" y="80" width="80" height="40" as="geometry" />
        </mxCell>
        <mxCell id="WUUN0eypintUxzaO_pkk-10" style="edgeStyle=orthogonalEdgeStyle;rounded=0;orthogonalLoop=1;jettySize=auto;html=1;entryX=1;entryY=0.5;entryDx=0;entryDy=0;endArrow=none;endFill=0;exitX=0.5;exitY=0;exitDx=0;exitDy=0;" edge="1" parent="1" source="WUUN0eypintUxzaO_pkk-8" target="WUUN0eypintUxzaO_pkk-2">
          <mxGeometry relative="1" as="geometry">
            <mxPoint x="180" y="140" as="sourcePoint" />
          </mxGeometry>
        </mxCell>
        <mxCell id="WUUN0eypintUxzaO_pkk-27" style="edgeStyle=orthogonalEdgeStyle;rounded=0;orthogonalLoop=1;jettySize=auto;html=1;endArrow=none;endFill=0;" edge="1" parent="1" source="WUUN0eypintUxzaO_pkk-8" target="WUUN0eypintUxzaO_pkk-7">
          <mxGeometry relative="1" as="geometry" />
        </mxCell>
        <mxCell id="WUUN0eypintUxzaO_pkk-29" style="edgeStyle=orthogonalEdgeStyle;rounded=0;orthogonalLoop=1;jettySize=auto;html=1;entryX=0;entryY=0.5;entryDx=0;entryDy=0;endArrow=none;endFill=0;" edge="1" parent="1" source="WUUN0eypintUxzaO_pkk-8" target="WUUN0eypintUxzaO_pkk-6">
          <mxGeometry relative="1" as="geometry">
            <mxPoint x="260" y="210" as="targetPoint" />
          </mxGeometry>
        </mxCell>
        <mxCell id="WUUN0eypintUxzaO_pkk-114" style="edgeStyle=orthogonalEdgeStyle;rounded=0;orthogonalLoop=1;jettySize=auto;html=1;entryX=0.5;entryY=0;entryDx=0;entryDy=0;endArrow=none;endFill=0;" edge="1" parent="1" source="WUUN0eypintUxzaO_pkk-8" target="WUUN0eypintUxzaO_pkk-51">
          <mxGeometry relative="1" as="geometry">
            <mxPoint x="190" y="290" as="targetPoint" />
          </mxGeometry>
        </mxCell>
        <mxCell id="WUUN0eypintUxzaO_pkk-8" value="" style="triangle;whiteSpace=wrap;html=1;rotation=-90;direction=east;" vertex="1" parent="1">
          <mxGeometry x="166.25" y="110" width="47.5" height="60" as="geometry" />
        </mxCell>
        <mxCell id="WUUN0eypintUxzaO_pkk-9" value="ISA" style="text;html=1;strokeColor=none;fillColor=none;align=center;verticalAlign=middle;whiteSpace=wrap;rounded=0;" vertex="1" parent="1">
          <mxGeometry x="160" y="128.75" width="60" height="30" as="geometry" />
        </mxCell>
        <mxCell id="WUUN0eypintUxzaO_pkk-20" style="edgeStyle=orthogonalEdgeStyle;rounded=0;orthogonalLoop=1;jettySize=auto;html=1;exitX=0.5;exitY=1;exitDx=0;exitDy=0;entryX=0.5;entryY=0;entryDx=0;entryDy=0;endArrow=ERoneToMany;endFill=0;" edge="1" parent="1" source="WUUN0eypintUxzaO_pkk-16" target="WUUN0eypintUxzaO_pkk-19">
          <mxGeometry relative="1" as="geometry" />
        </mxCell>
        <mxCell id="WUUN0eypintUxzaO_pkk-115" style="edgeStyle=orthogonalEdgeStyle;rounded=0;orthogonalLoop=1;jettySize=auto;html=1;entryX=1;entryY=0.5;entryDx=0;entryDy=0;endArrow=ERmandOne;endFill=0;" edge="1" parent="1" source="WUUN0eypintUxzaO_pkk-16" target="WUUN0eypintUxzaO_pkk-6">
          <mxGeometry relative="1" as="geometry" />
        </mxCell>
        <mxCell id="WUUN0eypintUxzaO_pkk-116" style="edgeStyle=orthogonalEdgeStyle;rounded=0;orthogonalLoop=1;jettySize=auto;html=1;endArrow=ERmandOne;endFill=0;" edge="1" parent="1" source="WUUN0eypintUxzaO_pkk-16" target="WUUN0eypintUxzaO_pkk-7">
          <mxGeometry relative="1" as="geometry" />
        </mxCell>
        <mxCell id="WUUN0eypintUxzaO_pkk-16" value="issue" style="shape=rhombus;perimeter=rhombusPerimeter;whiteSpace=wrap;html=1;align=center;" vertex="1" parent="1">
          <mxGeometry x="435" y="120" width="90" height="40" as="geometry" />
        </mxCell>
        <mxCell id="WUUN0eypintUxzaO_pkk-19" value="Book" style="whiteSpace=wrap;html=1;align=center;" vertex="1" parent="1">
          <mxGeometry x="430" y="300" width="100" height="40" as="geometry" />
        </mxCell>
        <mxCell id="WUUN0eypintUxzaO_pkk-24" value="issueDate" style="ellipse;whiteSpace=wrap;html=1;align=center;" vertex="1" parent="1">
          <mxGeometry x="440" y="40" width="80" height="40" as="geometry" />
        </mxCell>
        <mxCell id="WUUN0eypintUxzaO_pkk-32" value="duration" style="ellipse;whiteSpace=wrap;html=1;align=center;" vertex="1" parent="1">
          <mxGeometry x="535" y="60" width="65" height="40" as="geometry" />
        </mxCell>
        <mxCell id="WUUN0eypintUxzaO_pkk-33" value="fine" style="ellipse;whiteSpace=wrap;html=1;align=center;" vertex="1" parent="1">
          <mxGeometry x="560" y="120" width="60" height="40" as="geometry" />
        </mxCell>
        <mxCell id="WUUN0eypintUxzaO_pkk-35" value="category" style="ellipse;whiteSpace=wrap;html=1;align=center;" vertex="1" parent="1">
          <mxGeometry x="450" y="360" width="60" height="40" as="geometry" />
        </mxCell>
        <mxCell id="WUUN0eypintUxzaO_pkk-36" value="availability&amp;nbsp;" style="ellipse;whiteSpace=wrap;html=1;align=center;" vertex="1" parent="1">
          <mxGeometry x="345" y="360" width="80" height="40" as="geometry" />
        </mxCell>
        <mxCell id="WUUN0eypintUxzaO_pkk-37" value="&lt;u&gt;bID&lt;/u&gt;" style="ellipse;whiteSpace=wrap;html=1;align=center;" vertex="1" parent="1">
          <mxGeometry x="520" y="240" width="60" height="40" as="geometry" />
        </mxCell>
        <mxCell id="WUUN0eypintUxzaO_pkk-38" value="author" style="ellipse;whiteSpace=wrap;html=1;align=center;" vertex="1" parent="1">
          <mxGeometry x="535" y="360" width="60" height="40" as="geometry" />
        </mxCell>
        <mxCell id="WUUN0eypintUxzaO_pkk-39" value="name" style="ellipse;whiteSpace=wrap;html=1;align=center;" vertex="1" parent="1">
          <mxGeometry x="390" y="241.25" width="60" height="38.75" as="geometry" />
        </mxCell>
        <mxCell id="WUUN0eypintUxzaO_pkk-41" value="" style="endArrow=none;html=1;rounded=0;entryX=0.5;entryY=1;entryDx=0;entryDy=0;exitX=0.5;exitY=0;exitDx=0;exitDy=0;" edge="1" parent="1" source="WUUN0eypintUxzaO_pkk-16" target="WUUN0eypintUxzaO_pkk-24">
          <mxGeometry width="50" height="50" relative="1" as="geometry">
            <mxPoint x="505" y="200" as="sourcePoint" />
            <mxPoint x="555" y="150" as="targetPoint" />
          </mxGeometry>
        </mxCell>
        <mxCell id="WUUN0eypintUxzaO_pkk-42" value="" style="endArrow=none;html=1;rounded=0;exitX=0;exitY=1;exitDx=0;exitDy=0;entryX=0.5;entryY=0;entryDx=0;entryDy=0;" edge="1" parent="1" source="WUUN0eypintUxzaO_pkk-19" target="WUUN0eypintUxzaO_pkk-36">
          <mxGeometry width="50" height="50" relative="1" as="geometry">
            <mxPoint x="320" y="310" as="sourcePoint" />
            <mxPoint x="413" y="366" as="targetPoint" />
          </mxGeometry>
        </mxCell>
        <mxCell id="WUUN0eypintUxzaO_pkk-43" value="" style="endArrow=none;html=1;rounded=0;exitX=0.5;exitY=1;exitDx=0;exitDy=0;entryX=0.5;entryY=0;entryDx=0;entryDy=0;" edge="1" parent="1" source="WUUN0eypintUxzaO_pkk-19" target="WUUN0eypintUxzaO_pkk-35">
          <mxGeometry width="50" height="50" relative="1" as="geometry">
            <mxPoint x="330" y="320" as="sourcePoint" />
            <mxPoint x="425" y="370" as="targetPoint" />
          </mxGeometry>
        </mxCell>
        <mxCell id="WUUN0eypintUxzaO_pkk-44" value="" style="endArrow=none;html=1;rounded=0;exitX=1;exitY=1;exitDx=0;exitDy=0;entryX=0.5;entryY=0;entryDx=0;entryDy=0;" edge="1" parent="1" source="WUUN0eypintUxzaO_pkk-19" target="WUUN0eypintUxzaO_pkk-38">
          <mxGeometry width="50" height="50" relative="1" as="geometry">
            <mxPoint x="340" y="330" as="sourcePoint" />
            <mxPoint x="340" y="290" as="targetPoint" />
          </mxGeometry>
        </mxCell>
        <mxCell id="WUUN0eypintUxzaO_pkk-45" value="" style="endArrow=none;html=1;rounded=0;entryX=0.458;entryY=1.033;entryDx=0;entryDy=0;exitX=0.75;exitY=0;exitDx=0;exitDy=0;entryPerimeter=0;" edge="1" parent="1" source="WUUN0eypintUxzaO_pkk-19" target="WUUN0eypintUxzaO_pkk-37">
          <mxGeometry width="50" height="50" relative="1" as="geometry">
            <mxPoint x="350" y="340" as="sourcePoint" />
            <mxPoint x="350" y="300" as="targetPoint" />
          </mxGeometry>
        </mxCell>
        <mxCell id="WUUN0eypintUxzaO_pkk-46" value="" style="endArrow=none;html=1;rounded=0;entryX=0.5;entryY=1;entryDx=0;entryDy=0;exitX=0.25;exitY=0;exitDx=0;exitDy=0;" edge="1" parent="1" source="WUUN0eypintUxzaO_pkk-19" target="WUUN0eypintUxzaO_pkk-39">
          <mxGeometry width="50" height="50" relative="1" as="geometry">
            <mxPoint x="435" y="290" as="sourcePoint" />
            <mxPoint x="360" y="310" as="targetPoint" />
          </mxGeometry>
        </mxCell>
        <mxCell id="WUUN0eypintUxzaO_pkk-47" value="" style="endArrow=none;html=1;rounded=0;entryX=1;entryY=0.5;entryDx=0;entryDy=0;exitX=0;exitY=0.5;exitDx=0;exitDy=0;" edge="1" parent="1" source="WUUN0eypintUxzaO_pkk-33" target="WUUN0eypintUxzaO_pkk-16">
          <mxGeometry width="50" height="50" relative="1" as="geometry">
            <mxPoint x="540" y="180" as="sourcePoint" />
            <mxPoint x="540" y="140" as="targetPoint" />
          </mxGeometry>
        </mxCell>
        <mxCell id="WUUN0eypintUxzaO_pkk-48" value="" style="endArrow=none;html=1;rounded=0;entryX=1;entryY=0;entryDx=0;entryDy=0;exitX=0;exitY=1;exitDx=0;exitDy=0;" edge="1" parent="1" source="WUUN0eypintUxzaO_pkk-32" target="WUUN0eypintUxzaO_pkk-16">
          <mxGeometry width="50" height="50" relative="1" as="geometry">
            <mxPoint x="550" y="190" as="sourcePoint" />
            <mxPoint x="550" y="150" as="targetPoint" />
          </mxGeometry>
        </mxCell>
        <mxCell id="WUUN0eypintUxzaO_pkk-51" value="Admin" style="whiteSpace=wrap;html=1;align=center;" vertex="1" parent="1">
          <mxGeometry x="150" y="300" width="80" height="40" as="geometry" />
        </mxCell>
        <mxCell id="WUUN0eypintUxzaO_pkk-57" style="edgeStyle=orthogonalEdgeStyle;rounded=0;orthogonalLoop=1;jettySize=auto;html=1;exitX=0;exitY=0.5;exitDx=0;exitDy=0;entryX=1;entryY=0.5;entryDx=0;entryDy=0;endArrow=ERmandOne;endFill=0;" edge="1" parent="1" source="WUUN0eypintUxzaO_pkk-55" target="WUUN0eypintUxzaO_pkk-51">
          <mxGeometry relative="1" as="geometry" />
        </mxCell>
        <mxCell id="WUUN0eypintUxzaO_pkk-106" style="edgeStyle=orthogonalEdgeStyle;rounded=0;orthogonalLoop=1;jettySize=auto;html=1;entryX=0;entryY=0.5;entryDx=0;entryDy=0;endArrow=ERzeroToMany;endFill=0;" edge="1" parent="1" source="WUUN0eypintUxzaO_pkk-55" target="WUUN0eypintUxzaO_pkk-19">
          <mxGeometry relative="1" as="geometry" />
        </mxCell>
        <mxCell id="WUUN0eypintUxzaO_pkk-55" value="modify" style="shape=rhombus;perimeter=rhombusPerimeter;whiteSpace=wrap;html=1;align=center;" vertex="1" parent="1">
          <mxGeometry x="275" y="295" width="90" height="50" as="geometry" />
        </mxCell>
        <mxCell id="WUUN0eypintUxzaO_pkk-107" value="" style="edgeStyle=orthogonalEdgeStyle;rounded=0;orthogonalLoop=1;jettySize=auto;html=1;endArrow=ERoneToMany;endFill=0;" edge="1" parent="1" source="WUUN0eypintUxzaO_pkk-101" target="WUUN0eypintUxzaO_pkk-19">
          <mxGeometry relative="1" as="geometry" />
        </mxCell>
        <mxCell id="WUUN0eypintUxzaO_pkk-108" value="" style="edgeStyle=orthogonalEdgeStyle;rounded=0;orthogonalLoop=1;jettySize=auto;html=1;endArrow=ERmandOne;endFill=0;" edge="1" parent="1" source="WUUN0eypintUxzaO_pkk-101" target="WUUN0eypintUxzaO_pkk-103">
          <mxGeometry relative="1" as="geometry" />
        </mxCell>
        <mxCell id="WUUN0eypintUxzaO_pkk-101" value="update" style="shape=rhombus;perimeter=rhombusPerimeter;whiteSpace=wrap;html=1;align=center;" vertex="1" parent="1">
          <mxGeometry x="595" y="295" width="90" height="50" as="geometry" />
        </mxCell>
        <mxCell id="WUUN0eypintUxzaO_pkk-103" value="Stock" style="whiteSpace=wrap;html=1;align=center;" vertex="1" parent="1">
          <mxGeometry x="725" y="300" width="100" height="40" as="geometry" />
        </mxCell>
        <mxCell id="WUUN0eypintUxzaO_pkk-109" value="name" style="ellipse;whiteSpace=wrap;html=1;align=center;" vertex="1" parent="1">
          <mxGeometry x="735" y="240" width="60" height="38.75" as="geometry" />
        </mxCell>
        <mxCell id="WUUN0eypintUxzaO_pkk-110" value="numStock" style="ellipse;whiteSpace=wrap;html=1;align=center;" vertex="1" parent="1">
          <mxGeometry x="735" y="360" width="80" height="40" as="geometry" />
        </mxCell>
        <mxCell id="WUUN0eypintUxzaO_pkk-112" value="" style="endArrow=none;html=1;rounded=0;exitX=0.5;exitY=0;exitDx=0;exitDy=0;entryX=0.5;entryY=1;entryDx=0;entryDy=0;" edge="1" parent="1" source="WUUN0eypintUxzaO_pkk-103" target="WUUN0eypintUxzaO_pkk-109">
          <mxGeometry width="50" height="50" relative="1" as="geometry">
            <mxPoint x="490" y="340" as="sourcePoint" />
            <mxPoint x="540" y="290" as="targetPoint" />
          </mxGeometry>
        </mxCell>
        <mxCell id="WUUN0eypintUxzaO_pkk-113" value="" style="endArrow=none;html=1;rounded=0;exitX=0.5;exitY=0;exitDx=0;exitDy=0;entryX=0.5;entryY=1;entryDx=0;entryDy=0;" edge="1" parent="1" source="WUUN0eypintUxzaO_pkk-110" target="WUUN0eypintUxzaO_pkk-103">
          <mxGeometry width="50" height="50" relative="1" as="geometry">
            <mxPoint x="490" y="340" as="sourcePoint" />
            <mxPoint x="540" y="290" as="targetPoint" />
          </mxGeometry>
        </mxCell>
        <mxCell id="WUUN0eypintUxzaO_pkk-117" value="&lt;u&gt;email&lt;/u&gt;" style="ellipse;whiteSpace=wrap;html=1;align=center;" vertex="1" parent="1">
          <mxGeometry x="10" y="40" width="60" height="40" as="geometry" />
        </mxCell>
        <mxCell id="WUUN0eypintUxzaO_pkk-119" value="password" style="ellipse;whiteSpace=wrap;html=1;align=center;" vertex="1" parent="1">
          <mxGeometry x="90" y="40" width="70" height="40" as="geometry" />
        </mxCell>
        <mxCell id="WUUN0eypintUxzaO_pkk-120" value="role" style="ellipse;whiteSpace=wrap;html=1;align=center;" vertex="1" parent="1">
          <mxGeometry x="90" y="198.75" width="60" height="40" as="geometry" />
        </mxCell>
        <mxCell id="WUUN0eypintUxzaO_pkk-121" value="" style="endArrow=none;html=1;rounded=0;exitX=0.25;exitY=0;exitDx=0;exitDy=0;entryX=0.5;entryY=1;entryDx=0;entryDy=0;" edge="1" parent="1" source="WUUN0eypintUxzaO_pkk-2" target="WUUN0eypintUxzaO_pkk-117">
          <mxGeometry width="50" height="50" relative="1" as="geometry">
            <mxPoint x="520" y="250" as="sourcePoint" />
            <mxPoint x="570" y="200" as="targetPoint" />
          </mxGeometry>
        </mxCell>
        <mxCell id="WUUN0eypintUxzaO_pkk-122" value="" style="endArrow=none;html=1;rounded=0;exitX=0.75;exitY=0;exitDx=0;exitDy=0;entryX=0.5;entryY=1;entryDx=0;entryDy=0;" edge="1" parent="1" source="WUUN0eypintUxzaO_pkk-2" target="WUUN0eypintUxzaO_pkk-119">
          <mxGeometry width="50" height="50" relative="1" as="geometry">
            <mxPoint x="520" y="250" as="sourcePoint" />
            <mxPoint x="570" y="200" as="targetPoint" />
          </mxGeometry>
        </mxCell>
        <mxCell id="WUUN0eypintUxzaO_pkk-123" value="" style="endArrow=none;html=1;rounded=0;exitX=0.5;exitY=0;exitDx=0;exitDy=0;entryX=0.25;entryY=1;entryDx=0;entryDy=0;" edge="1" parent="1" source="WUUN0eypintUxzaO_pkk-3" target="WUUN0eypintUxzaO_pkk-2">
          <mxGeometry width="50" height="50" relative="1" as="geometry">
            <mxPoint x="490" y="250" as="sourcePoint" />
            <mxPoint x="540" y="200" as="targetPoint" />
          </mxGeometry>
        </mxCell>
        <mxCell id="WUUN0eypintUxzaO_pkk-124" value="" style="endArrow=none;html=1;rounded=0;exitX=0.5;exitY=0;exitDx=0;exitDy=0;entryX=0.75;entryY=1;entryDx=0;entryDy=0;" edge="1" parent="1" source="WUUN0eypintUxzaO_pkk-120" target="WUUN0eypintUxzaO_pkk-2">
          <mxGeometry width="50" height="50" relative="1" as="geometry">
            <mxPoint x="50" y="209" as="sourcePoint" />
            <mxPoint x="70" y="170" as="targetPoint" />
          </mxGeometry>
        </mxCell>
        <mxCell id="WUUN0eypintUxzaO_pkk-126" value="tDays" style="ellipse;whiteSpace=wrap;html=1;align=center;" vertex="1" parent="1">
          <mxGeometry x="300" y="20" width="60" height="40" as="geometry" />
        </mxCell>
        <mxCell id="WUUN0eypintUxzaO_pkk-127" value="sDays" style="ellipse;whiteSpace=wrap;html=1;align=center;" vertex="1" parent="1">
          <mxGeometry x="280" y="220" width="60" height="40" as="geometry" />
        </mxCell>
        <mxCell id="WUUN0eypintUxzaO_pkk-128" value="" style="endArrow=none;html=1;rounded=0;exitX=0.5;exitY=0;exitDx=0;exitDy=0;entryX=0.5;entryY=1;entryDx=0;entryDy=0;" edge="1" parent="1" source="WUUN0eypintUxzaO_pkk-7" target="WUUN0eypintUxzaO_pkk-126">
          <mxGeometry width="50" height="50" relative="1" as="geometry">
            <mxPoint x="110" y="130" as="sourcePoint" />
            <mxPoint x="135" y="90" as="targetPoint" />
          </mxGeometry>
        </mxCell>
        <mxCell id="WUUN0eypintUxzaO_pkk-129" value="" style="endArrow=none;html=1;rounded=0;exitX=0.5;exitY=0;exitDx=0;exitDy=0;entryX=0.5;entryY=1;entryDx=0;entryDy=0;" edge="1" parent="1" source="WUUN0eypintUxzaO_pkk-127" target="WUUN0eypintUxzaO_pkk-6">
          <mxGeometry width="50" height="50" relative="1" as="geometry">
            <mxPoint x="120" y="140" as="sourcePoint" />
            <mxPoint x="145" y="100" as="targetPoint" />
          </mxGeometry>
        </mxCell>
      </root>
    </mxGraphModel>
  </diagram>
</mxfile>
